<?xml version="1.0" standalone="no"?>
<!DOCTYPE svg PUBLIC "-//W3C//DTD SVG 20010904//EN"
 "http://www.w3.org/TR/2001/REC-SVG-20010904/DTD/svg10.dtd">
<svg version="1.0" xmlns="http://www.w3.org/2000/svg"
 width="512.000000pt" height="512.000000pt" viewBox="0 0 512.000000 512.000000"
 preserveAspectRatio="xMidYMid meet">
<metadata>
Created by potrace 1.14, written by Peter Selinger 2001-2017
</metadata>
<g transform="translate(0.000000,512.000000) scale(0.100000,-0.100000)"
fill="#000000" stroke="none">
<path d="M2760 4650 c-79 -9 -278 -59 -328 -81 -23 -10 -48 -19 -55 -19 -7 0
-53 -20 -104 -45 -157 -77 -261 -197 -314 -361 -14 -44 -39 -101 -56 -125 -98
-146 -131 -241 -142 -414 -12 -197 -14 -766 -2 -815 13 -58 18 -139 25 -395 5
-234 28 -481 51 -558 37 -126 135 -334 183 -389 36 -41 55 -76 48 -87 -3 -5
-27 -12 -53 -15 -176 -24 -429 -115 -533 -191 -60 -44 -159 -168 -222 -275
-67 -117 -159 -382 -189 -547 -6 -32 -19 -78 -29 -103 -46 -115 -80 -208 -80
-218 0 -7 11 -12 26 -12 29 0 42 24 69 128 9 35 20 71 25 80 5 10 25 82 45
162 20 80 47 182 61 227 l24 82 28 -15 c29 -15 55 -18 65 -7 9 8 -52 37 -71
34 -27 -4 22 120 80 204 19 28 42 64 51 80 8 17 38 55 65 85 86 96 327 206
549 250 95 19 105 19 127 5 32 -21 37 -37 24 -77 -6 -18 -12 -39 -14 -45 -5
-19 -22 -16 -28 5 -3 9 -3 -2 0 -25 6 -48 -22 -203 -39 -218 -22 -19 -77 -105
-83 -131 -5 -21 -11 -24 -33 -20 -14 4 -39 2 -56 -3 -29 -8 -28 -9 30 -25 114
-33 122 -37 133 -61 7 -15 8 -35 2 -54 -11 -38 -16 -169 -7 -178 13 -12 7 -33
-8 -33 -8 0 -15 -5 -15 -11 0 -6 7 -9 15 -5 11 4 15 -2 17 -24 0 -17 1 -36 2
-42 1 -13 -8 -14 -56 -2 -51 12 -31 -22 41 -70 38 -25 73 -46 79 -46 5 0 32
-15 58 -33 77 -53 114 -69 141 -62 22 5 23 8 11 22 -17 21 -163 115 -205 132
-32 13 -48 35 -37 53 3 5 12 7 20 4 19 -7 19 38 0 53 -19 16 -30 107 -22 175
8 57 30 99 43 80 9 -12 63 -38 103 -49 25 -7 25 -7 -5 25 -17 18 -29 40 -27
51 2 10 -4 29 -12 41 -21 30 -20 41 4 35 29 -7 34 9 11 34 -21 23 -20 39 3 39
16 0 106 78 106 91 0 15 -16 10 -75 -26 -32 -19 -62 -32 -66 -29 -5 3 -9 21
-9 40 0 31 -2 34 -19 25 -17 -10 -18 -8 -10 27 5 20 9 62 9 93 0 31 4 69 9 85
5 16 12 41 15 55 6 26 9 24 92 -59 83 -84 86 -88 82 -127 -3 -22 -6 -44 -9
-50 -2 -5 0 -11 6 -12 31 -6 39 -162 45 -935 0 -23 5 -28 24 -28 23 0 24 3 31
98 8 117 -19 682 -41 831 -8 57 -13 106 -10 108 2 3 33 -19 68 -48 70 -58 193
-121 281 -144 153 -40 381 2 552 101 224 129 436 315 580 507 15 21 30 35 33
33 3 -3 -1 -12 -7 -20 -10 -11 -10 -41 0 -133 6 -65 15 -152 18 -193 l7 -75
10 55 c5 30 8 62 7 70 -9 73 -23 273 -20 277 3 2 46 -37 96 -88 69 -70 91 -99
91 -119 0 -97 -236 -795 -292 -867 -8 -10 -15 -7 -29 11 -23 30 -78 49 -113
40 -47 -11 -76 -51 -76 -103 0 -54 20 -88 61 -105 l29 -12 -96 -110 c-85 -97
-93 -109 -73 -112 18 -3 44 19 121 99 54 57 98 98 98 91 0 -7 -11 -23 -23 -35
-13 -12 -36 -44 -52 -72 -16 -27 -35 -58 -43 -67 -14 -17 -13 -18 11 -18 20 0
33 10 51 38 13 21 47 69 75 107 28 37 51 76 51 86 0 9 3 24 6 33 5 14 8 13 23
-3 46 -54 179 -33 182 28 0 9 5 0 12 -19 10 -30 17 -35 42 -35 30 0 30 1 33
60 5 101 42 115 42 16 0 -31 5 -62 12 -69 15 -15 50 -16 65 -1 8 8 13 8 17 0
4 -6 18 -11 32 -11 19 0 28 7 35 30 10 26 16 30 49 30 33 0 41 -5 52 -28 11
-21 20 -27 46 -27 24 0 32 -4 32 -18 0 -29 19 -57 38 -57 25 0 42 20 42 47 0
20 5 23 36 23 45 0 70 13 88 48 15 27 15 26 16 -30 0 -71 7 -88 34 -88 28 0
46 18 46 47 0 20 5 23 40 23 62 0 90 33 90 104 0 89 -35 118 -130 106 -8 -2
-22 1 -31 4 -22 10 -49 -19 -50 -52 0 -16 -3 -21 -6 -12 -17 47 -84 82 -119
62 -12 -7 -24 -6 -36 2 -16 9 -23 7 -38 -12 -18 -22 -21 -22 -48 -8 -16 8 -39
31 -50 51 -17 28 -28 35 -51 35 -16 0 -33 -5 -37 -11 -7 -12 -18 -11 -169 19
-86 18 -107 19 -154 8 -53 -12 -63 -20 -76 -60 -3 -10 -8 -16 -11 -13 -3 3 8
36 24 74 85 193 140 376 197 649 5 25 13 33 36 38 16 3 29 10 29 15 0 6 -11 6
-29 1 -28 -8 -28 -8 -29 39 0 25 -2 55 -3 66 -1 11 7 38 16 60 19 44 20 82 2
132 -18 52 -27 39 -28 -39 0 -40 -3 -91 -7 -113 l-8 -40 -74 70 c-41 39 -78
75 -83 80 -21 28 -18 58 11 113 l31 57 93 5 c68 4 95 2 101 -8 11 -17 30 -15
24 2 -4 9 3 16 20 19 36 7 55 -17 217 -258 142 -211 196 -271 346 -388 76 -58
324 -227 334 -227 3 0 6 8 6 18 0 10 -17 30 -37 43 -314 208 -451 331 -570
507 -204 305 -269 367 -360 341 -49 -13 -148 -18 -159 -7 -4 4 1 54 11 110 10
57 19 114 21 128 14 127 15 130 39 130 18 0 29 11 47 48 22 44 23 57 21 209
-2 92 1 173 7 189 6 14 7 32 3 38 -5 6 -8 52 -8 101 0 66 5 99 17 124 25 48
46 143 52 236 25 372 16 626 -26 745 -11 30 -29 82 -39 115 -11 33 -33 87 -50
120 -81 162 -92 176 -202 273 -113 99 -125 108 -247 193 -86 60 -235 132 -318
155 -135 36 -410 53 -562 34z m155 -449 c220 -45 295 -62 376 -84 46 -13 120
-32 164 -42 88 -20 123 -35 205 -89 133 -86 182 -155 206 -291 8 -47 19 -97
24 -111 6 -14 10 -40 10 -58 0 -19 7 -39 15 -46 18 -15 20 -37 4 -42 -8 -3 -7
-16 2 -48 14 -52 21 -85 48 -230 11 -58 28 -143 38 -190 15 -72 17 -131 16
-375 -3 -783 -56 -982 -337 -1273 -101 -104 -154 -142 -184 -131 -13 5 -22 4
-22 -2 0 -5 -7 -12 -15 -15 -8 -3 -34 -24 -57 -45 -39 -35 -44 -37 -55 -23
-10 14 -15 15 -28 4 -11 -9 -18 -10 -29 -1 -11 9 -15 5 -20 -20 -5 -27 -8 -30
-21 -19 -11 9 -15 9 -15 1 0 -7 -6 -11 -12 -10 -36 4 -50 -2 -46 -19 3 -12 -2
-24 -14 -31 -16 -10 -20 -8 -28 11 -9 22 -9 22 -9 -4 -2 -51 -31 -39 -31 13 0
22 -19 26 -25 4 -17 -52 -16 -51 -30 -25 l-14 25 -1 -36 c0 -37 -9 -41 -52
-25 -38 13 -48 15 -48 8 0 -11 -114 -10 -123 2 -6 8 -10 8 -13 0 -2 -6 -18 -8
-34 -6 -18 3 -30 0 -30 -7 0 -6 -5 -11 -11 -11 -7 0 -9 10 -7 25 4 21 3 23
-13 15 -10 -6 -21 -15 -24 -20 -4 -7 -12 -7 -25 0 -10 5 -26 7 -34 4 -11 -4
-16 0 -16 12 0 11 -8 28 -16 39 -15 19 -15 19 -9 -7 8 -31 -5 -37 -28 -14 -8
9 -12 26 -10 39 3 14 0 28 -6 31 -6 4 -13 -8 -17 -29 -7 -42 -16 -44 -42 -10
-19 24 -50 36 -37 14 4 -6 -2 -5 -14 3 -12 7 -21 19 -21 26 0 7 -13 18 -30 23
-16 6 -30 16 -30 23 0 6 -13 17 -29 24 -74 33 -246 266 -363 492 -104 202
-121 307 -122 750 -1 331 2 370 70 819 35 234 129 598 193 751 36 87 93 166
138 192 85 50 141 62 318 68 183 5 217 3 370 -29z m1175 -1749 c0 -37 -6 -65
-15 -78 -15 -18 -16 -18 -11 11 3 17 8 51 11 78 3 26 8 47 11 47 2 0 4 -26 4
-58z m24 -159 c8 -76 -14 -164 -47 -191 -25 -21 -28 0 -17 99 9 82 32 149 51
149 3 0 9 -26 13 -57z m-2004 -1455 c-7 -19 -9 -15 -9 22 0 37 2 41 9 23 6
-14 6 -32 0 -45z m-69 -23 l-6 -70 -19 29 c-20 28 -20 28 4 72 12 25 24 43 25
42 0 -2 -1 -34 -4 -73z m118 -107 c1 -25 -35 -23 -49 1 -13 24 -13 84 -1 76 5
-3 13 0 17 7 8 13 32 -47 33 -84z m2022 -232 c19 -7 49 -11 67 -9 17 3 32 2
32 -2 0 -5 -15 -47 -32 -94 l-33 -86 -5 61 c-3 34 -11 68 -18 77 -18 21 -66
31 -90 18 -13 -7 -22 -7 -30 1 -20 20 -62 -7 -62 -38 l0 -26 -19 23 c-16 20
-16 26 -5 48 8 14 14 32 14 40 0 11 14 13 73 8 40 -4 89 -13 108 -21z m186 12
c5 -7 28 -60 51 -117 32 -79 39 -107 31 -118 -18 -21 -29 -16 -45 22 -14 33
-17 35 -64 35 -44 0 -50 -3 -56 -25 -8 -34 -31 -52 -47 -36 -13 13 9 86 58
197 24 55 50 70 72 42z m-407 -5 c-1 -13 -27 -43 -32 -37 -10 10 4 44 18 44 8
0 14 -3 14 -7z m-228 -64 c31 -17 49 -70 37 -113 -28 -100 -179 -74 -179 31 0
68 81 115 142 82z m233 -14 c18 -17 25 -35 25 -64 0 -54 -7 -69 -42 -87 -96
-50 -185 70 -109 147 38 38 91 40 126 4z m105 8 c0 -15 1 -15 18 0 24 22 66
22 87 1 22 -22 18 -169 -5 -169 -11 0 -16 13 -18 50 -4 85 -9 97 -40 93 -26
-3 -27 -6 -30 -65 -3 -61 -19 -92 -42 -78 -11 7 -14 167 -3 178 12 13 33 7 33
-10z m460 1 c0 -14 2 -14 22 0 54 38 118 -2 118 -74 0 -22 -7 -52 -16 -65 -21
-31 -67 -42 -99 -21 l-24 16 -3 -48 c-2 -34 -7 -47 -18 -47 -12 0 -16 21 -18
114 -1 63 0 121 2 128 7 18 36 16 36 -3z m218 0 c8 -14 10 -14 21 0 15 18 53
21 80 6 48 -25 51 -123 4 -160 -31 -24 -51 -25 -80 -5 -21 15 -22 14 -25 -32
-2 -35 -7 -48 -18 -48 -12 0 -15 22 -18 128 -2 107 0 127 12 127 8 0 19 -7 24
-16z m-278 -73 l-1 -46 -15 35 c-36 80 -36 80 -9 68 21 -10 25 -18 25 -57z"/>
<path d="M2062 3205 c-81 -36 -164 -128 -167 -186 -2 -38 17 -38 101 1 36 17
91 36 122 41 61 12 189 8 292 -9 36 -6 85 -13 110 -16 25 -2 70 -7 100 -11 54
-7 55 -6 67 22 25 62 25 70 -3 92 -15 12 -30 18 -33 15 -3 -3 4 -13 17 -21 12
-9 22 -22 22 -29 0 -17 -27 -4 -66 32 -29 25 -75 39 -209 61 -143 23 -311 27
-353 8z m538 -70 c19 -23 8 -26 -19 -4 -16 13 -18 19 -8 19 8 0 20 -7 27 -15z"/>
<path d="M3500 3148 c-150 -21 -200 -30 -206 -39 -4 -6 -10 -6 -18 0 -13 11
-56 4 -56 -9 0 -4 -12 -10 -26 -13 -18 -3 -24 -1 -20 9 9 22 -10 25 -29 4 -11
-12 -13 -20 -6 -20 8 0 6 -8 -4 -24 -15 -23 -15 -27 1 -51 l17 -27 226 7 c252
8 318 2 460 -46 46 -15 88 -26 93 -23 40 25 -70 177 -163 225 -42 21 -149 24
-269 7z"/>
<path d="M3107 3103 c-4 -3 -7 -11 -7 -17 0 -6 5 -5 12 2 6 6 9 14 7 17 -3 3
-9 2 -12 -2z"/>
<path d="M2300 2960 c-58 -4 -124 -14 -147 -23 -50 -19 -136 -68 -130 -74 3
-2 39 10 81 27 91 36 253 64 340 58 37 -2 78 -12 104 -26 47 -24 52 -26 52
-14 0 5 -17 18 -38 30 -46 26 -117 31 -262 22z"/>
<path d="M3244 2916 c-49 -22 -77 -46 -55 -46 5 0 31 10 58 22 38 17 66 22
138 21 135 0 349 -56 382 -100 15 -19 28 -11 20 11 -17 44 -223 102 -392 111
-91 5 -105 3 -151 -19z"/>
<path d="M2320 2922 c-116 -17 -289 -73 -290 -93 0 -4 26 -9 58 -13 31 -3 82
-10 112 -15 75 -13 191 -13 275 0 39 6 86 12 105 13 24 1 36 6 38 18 7 39
-208 104 -298 90z m25 -62 c0 -31 -31 -39 -40 -11 -8 26 2 43 23 39 11 -2 17
-13 17 -28z m-81 -2 c12 -45 9 -49 -36 -42 -83 13 -88 20 -38 43 57 26 66 26
74 -1z m272 6 l38 -16 -33 -14 c-57 -24 -66 -20 -55 24 7 26 3 26 50 6z"/>
<path d="M3270 2861 c-47 -16 -88 -27 -92 -24 -8 4 -11 -9 -5 -24 1 -5 16 -9
32 -10 17 0 66 -11 110 -24 102 -28 278 -31 339 -6 21 9 48 15 60 12 20 -5 56
9 46 18 -15 13 -152 61 -209 73 -105 22 -184 18 -281 -15z m73 -33 c4 -12 5
-23 3 -25 -6 -6 -96 10 -96 17 0 7 53 27 76 29 7 1 14 -9 17 -21z m75 10 c-6
-18 -28 -21 -28 -4 0 9 7 16 16 16 9 0 14 -5 12 -12z m235 -27 c12 -12 -30
-31 -67 -31 -20 0 -22 4 -18 26 4 24 8 26 40 20 19 -3 40 -10 45 -15z"/>
<path d="M2489 2413 c-31 -80 -15 -155 40 -187 28 -16 38 -17 65 -8 55 20 100
15 127 -14 72 -77 138 -82 265 -19 75 36 80 37 154 31 l77 -7 27 31 c20 24 26
42 26 77 0 43 -22 107 -42 119 -18 11 -17 -2 3 -43 27 -55 19 -124 -19 -153
-27 -22 -57 -26 -67 -10 -13 21 -97 10 -160 -20 -66 -32 -138 -47 -179 -36
-15 4 -38 19 -52 35 -14 16 -39 35 -55 41 -32 14 -99 6 -99 -12 0 -18 -54 1
-79 29 -20 23 -23 34 -18 82 2 31 8 64 12 74 4 10 3 17 -4 17 -6 0 -16 -12
-22 -27z"/>
<path d="M2770 2120 c-13 -8 -12 -10 3 -10 9 0 17 5 17 10 0 12 -1 12 -20 0z"/>
<path d="M2351 2068 c-14 -23 -14 -23 8 -4 22 20 25 26 13 26 -4 0 -13 -10
-21 -22z"/>
<path d="M3300 2061 c0 -5 5 -13 10 -16 6 -3 10 -2 10 4 0 5 -4 13 -10 16 -5
3 -10 2 -10 -4z"/>
<path d="M3360 2051 c0 -5 5 -13 10 -16 6 -3 10 -2 10 4 0 5 -4 13 -10 16 -5
3 -10 2 -10 -4z"/>
<path d="M3420 1973 c1 -13 27 -43 37 -43 6 0 18 -10 26 -22 13 -18 18 -20 25
-10 11 16 4 60 -11 69 -5 3 -16 -2 -24 -12 -7 -11 -13 -14 -13 -7 0 6 -9 16
-20 22 -11 6 -20 7 -20 3z m80 -39 c0 -8 -4 -12 -10 -9 -5 3 -10 13 -10 21 0
8 5 12 10 9 6 -3 10 -13 10 -21z"/>
<path d="M2535 1910 c-16 -4 -55 -11 -85 -15 -30 -3 -66 -14 -80 -25 l-25 -18
30 -8 c17 -4 46 -17 65 -29 126 -78 393 -120 626 -97 107 11 328 76 321 95 -5
16 -160 66 -240 78 -41 5 -124 7 -192 3 -88 -4 -149 -2 -226 10 -116 17 -148
18 -194 6z m244 -45 c80 -11 121 -13 153 -6 83 20 225 11 302 -19 l29 -11 -28
-29 c-33 -34 -50 -37 -64 -12 -10 16 -12 15 -28 -5 -26 -32 -80 -41 -98 -17
-14 18 -15 18 -31 -4 -16 -23 -19 -24 -126 -18 -61 4 -115 9 -122 13 -6 4 -30
8 -54 9 -23 0 -66 8 -95 17 -29 9 -63 19 -77 21 -31 6 -75 45 -63 56 24 23
156 25 302 5z"/>
<path d="M2580 1070 c0 -5 5 -10 10 -10 6 0 10 5 10 10 0 6 -4 10 -10 10 -5 0
-10 -4 -10 -10z"/>
<path d="M2980 1000 c0 -11 5 -20 10 -20 6 0 10 9 10 20 0 11 -4 20 -10 20 -5
0 -10 -9 -10 -20z"/>
<path d="M4322 391 c-16 -52 -17 -51 22 -51 l35 0 -16 45 c-8 25 -18 45 -22
45 -4 0 -13 -17 -19 -39z m28 -21 c0 -5 -4 -10 -10 -10 -5 0 -10 5 -10 10 0 6
5 10 10 10 6 0 10 -4 10 -10z"/>
<path d="M3656 384 c-19 -18 -21 -75 -4 -92 18 -18 56 -14 68 7 16 30 12 59
-10 81 -24 24 -34 25 -54 4z m52 -37 c3 -28 -12 -57 -29 -57 -19 0 -32 46 -19
69 16 30 44 23 48 -12z"/>
<path d="M3876 384 c-19 -18 -21 -75 -4 -92 18 -18 56 -14 68 7 16 30 12 59
-10 81 -24 24 -34 25 -54 4z"/>
<path d="M4556 381 c-37 -41 -1 -122 42 -95 25 16 29 84 6 101 -23 17 -28 16
-48 -6z m44 -16 c17 -21 4 -65 -20 -65 -19 0 -36 32 -25 50 3 5 14 10 23 10
15 0 15 2 2 10 -8 5 -10 10 -4 10 6 0 17 -7 24 -15z"/>
<path d="M4779 390 c-25 -15 -32 -58 -14 -86 17 -26 44 -31 63 -12 18 18 14
73 -6 91 -21 20 -22 20 -43 7z m39 -54 c3 -34 1 -37 -20 -34 -27 4 -37 41 -17
64 19 23 34 11 37 -30z"/>
<path d="M4286 1520 c-10 -78 -12 -80 -69 -80 -57 0 -55 -17 3 -22 34 -3 35
-5 41 -51 l5 -49 -41 7 c-29 4 -45 2 -53 -7 -8 -10 -2 -14 26 -16 21 -1 42 -9
49 -18 17 -24 46 -10 38 17 -6 16 -4 21 6 17 11 -4 15 20 17 123 2 78 0 129
-6 129 -5 0 -12 -23 -16 -50z"/>
<path d="M4173 1524 c-15 -32 -7 -50 13 -33 14 12 20 59 7 59 -5 0 -13 -12
-20 -26z"/>
<path d="M4223 1525 c-3 -9 -3 -18 -1 -21 3 -3 8 4 11 16 6 23 -1 27 -10 5z"/>
<path d="M4220 1260 c20 -13 33 -13 25 0 -3 6 -14 10 -23 10 -15 0 -15 -2 -2
-10z"/>
<path d="M4260 1068 c0 -27 5 -48 10 -48 19 0 21 25 6 61 l-15 34 -1 -47z"/>
<path d="M4650 1091 c0 -5 7 -14 15 -21 8 -6 17 -22 21 -33 4 -12 16 -35 27
-51 l21 -29 -32 6 c-19 4 -32 2 -32 -3 0 -6 6 -10 13 -11 6 0 23 -3 37 -5 14
-2 32 -5 40 -5 8 -1 21 -6 27 -11 9 -7 15 -5 19 6 8 21 -1 30 -29 31 -15 0
-22 6 -22 20 0 11 -6 20 -14 20 -8 0 -18 14 -23 32 -10 39 -68 85 -68 54z"/>
<path d="M4168 1003 c6 -2 18 -2 25 0 6 3 1 5 -13 5 -14 0 -19 -2 -12 -5z"/>
<path d="M4228 995 c13 -9 26 -14 29 -11 8 8 3 12 -27 21 l-25 7 23 -17z"/>
<path d="M2141 984 c0 -11 3 -14 6 -6 3 7 2 16 -1 19 -3 4 -6 -2 -5 -13z"/>
<path d="M4751 873 c-1 -23 4 -45 9 -48 12 -7 12 29 0 65 -7 21 -8 19 -9 -17z"/>
<path d="M1581 884 c6 -8 18 -14 26 -14 20 0 8 16 -17 23 -17 4 -19 3 -9 -9z"/>
<path d="M4730 791 c0 -5 7 -14 15 -21 10 -8 15 -31 15 -66 0 -62 15 -79 25
-27 7 38 25 63 47 63 7 0 -1 9 -18 19 -18 11 -35 24 -38 30 -8 13 -46 15 -46
2z"/>
<path d="M2265 710 c8 -27 22 -46 29 -39 3 3 -4 18 -15 34 -19 28 -20 28 -14
5z"/>
<path d="M5090 656 c0 -8 7 -16 15 -20 9 -3 15 0 15 8 0 8 -7 16 -15 20 -9 3
-15 0 -15 -8z"/>
<path d="M1346 627 c3 -9 19 -19 36 -22 22 -5 28 -11 23 -23 -5 -13 -3 -14 5
-6 9 9 22 7 50 -7 22 -11 47 -19 56 -19 30 0 -14 39 -52 46 -19 3 -34 10 -34
14 0 4 -10 10 -22 13 -13 3 -33 9 -46 12 -18 6 -21 4 -16 -8z"/>
<path d="M3400 495 c-22 -26 -8 -50 33 -53 l37 -3 0 -93 c0 -97 7 -116 46
-116 29 0 34 16 34 120 l0 89 38 3 c30 2 38 7 40 27 2 13 -2 28 -10 32 -7 5
-56 9 -109 9 -72 0 -100 -4 -109 -15z m213 -12 c13 -12 -15 -33 -44 -33 l-29
0 0 -94 c0 -74 -3 -96 -16 -107 -29 -24 -44 14 -44 113 l0 88 -29 0 c-29 0
-57 21 -44 33 8 9 198 9 206 0z"/>
<path d="M2170 305 c0 -2 15 -12 33 -20 l32 -16 -24 21 c-22 19 -41 26 -41 15z"/>
<path d="M1116 221 c-3 -5 6 -12 20 -15 29 -8 39 -3 29 13 -8 13 -42 14 -49 2z"/>
<path d="M2070 62 c50 -45 106 -65 165 -60 l40 4 -68 32 c-37 17 -86 36 -108
42 -22 6 -48 14 -57 16 -9 3 3 -12 28 -34z"/>
</g>
</svg>
